<?xml version="1.0" encoding="UTF-8" standalone="no"?>
<!-- Created with Inkscape (http://www.inkscape.org/) -->

<svg
   xmlns:dc="http://purl.org/dc/elements/1.1/"
   xmlns:cc="http://creativecommons.org/ns#"
   xmlns:rdf="http://www.w3.org/1999/02/22-rdf-syntax-ns#"
   xmlns:svg="http://www.w3.org/2000/svg"
   xmlns="http://www.w3.org/2000/svg"
   xmlns:sodipodi="http://sodipodi.sourceforge.net/DTD/sodipodi-0.dtd"
   xmlns:inkscape="http://www.inkscape.org/namespaces/inkscape"
   width="79mm"
   height="12mm"
   viewBox="0 0 79 12"
   version="1.1"
   id="svg8"
   sodipodi:docname="branlr-room-logo.svg"
   inkscape:version="0.92.3 (2405546, 2018-03-11)"
   inkscape:export-filename="/Users/DCEUUXY/racolage.xxx/docs/images/branlr-room-logo.png"
   inkscape:export-xdpi="25.400002"
   inkscape:export-ydpi="25.400002">
  <defs
     id="defs2" />
  <sodipodi:namedview
     id="base"
     pagecolor="#ffffff"
     bordercolor="#666666"
     borderopacity="1.0"
     inkscape:pageopacity="0.0"
     inkscape:pageshadow="2"
     inkscape:zoom="0.061871843"
     inkscape:cx="4240.3999"
     inkscape:cy="-804.41627"
     inkscape:document-units="mm"
     inkscape:current-layer="g1579"
     showgrid="false"
     inkscape:window-width="1260"
     inkscape:window-height="787"
     inkscape:window-x="300"
     inkscape:window-y="74"
     inkscape:window-maximized="0" />
  <metadata
     id="metadata5">
    <rdf:RDF>
      <cc:Work
         rdf:about="">
        <dc:format>image/svg+xml</dc:format>
        <dc:type
           rdf:resource="http://purl.org/dc/dcmitype/StillImage" />
        <dc:title />
      </cc:Work>
    </rdf:RDF>
  </metadata>
  <g
     inkscape:label="Layer 1"
     inkscape:groupmode="layer"
     id="layer1"
     transform="translate(0,-285)">
    <flowRoot
       xml:space="preserve"
       id="flowRoot815"
       style="font-style:normal;font-variant:normal;font-weight:normal;font-stretch:normal;font-size:40px;line-height:1.25;font-family:Steps-Mono;-inkscape-font-specification:Steps-Mono;letter-spacing:0px;word-spacing:0px;fill:#000000;fill-opacity:1;stroke:none"
       inkscape:export-xdpi="23.060696"
       inkscape:export-ydpi="23.060696"
       inkscape:export-filename="/Users/DCEUUXY/flowRoot815.png"
       transform="scale(0.26458333)"><flowRegion
         id="flowRegion817"
         style="font-style:normal;font-variant:normal;font-weight:normal;font-stretch:normal;font-family:Steps-Mono;-inkscape-font-specification:Steps-Mono"><rect
           id="rect819"
           width="831.42859"
           height="188.57143"
           x="20"
           y="276.80539"
           style="font-style:normal;font-variant:normal;font-weight:normal;font-stretch:normal;font-family:Steps-Mono;-inkscape-font-specification:Steps-Mono" /></flowRegion><flowPara
         id="flowPara821" /></flowRoot>    <g
       id="g1579"
       inkscape:export-xdpi="23.060696"
       inkscape:export-ydpi="23.060696">
      <g
         id="g869"
         transform="translate(300.47201,419.0171)"
         style="fill:#000000;fill-opacity:1">
        <path
           transform="matrix(0.26458333,0,0,0.26458333,0,-703)"
           id="path872"
           d="M 1889.7637,3.8613281 A 1885.9034,1885.9034 0 0 0 3.8613281,1889.7637 1885.9034,1885.9034 0 0 0 1889.7637,3775.668 1885.9034,1885.9034 0 0 0 3775.668,1889.7637 1885.9034,1885.9034 0 0 0 1889.7637,3.8613281 Z m 0,59.2070309 A 1826.6946,1826.6946 0 0 1 3716.459,1889.7637 1826.6946,1826.6946 0 0 1 1889.7637,3716.459 1826.6946,1826.6946 0 0 1 63.068359,1889.7637 1826.6946,1826.6946 0 0 1 1889.7637,63.068359 Z"
           style="fill:#000000;fill-opacity:1;stroke:#000000;stroke-width:7.72078085;stroke-miterlimit:4;stroke-dasharray:none;stroke-opacity:1"
           inkscape:connector-curvature="0" />
      </g>
      <g
         aria-label="ROOM"
         transform="matrix(0.26416604,0,0,0.32432331,286.49315,-358.91018)"
         style="font-style:normal;font-weight:normal;font-size:40px;line-height:1.25;font-family:sans-serif;letter-spacing:0px;word-spacing:0px;fill:#000000;fill-opacity:1;stroke:none;stroke-width:7.55905533;stroke-miterlimit:4;stroke-dasharray:none"
         id="flowRoot879">
        <path
           d="m 697.81813,2364.2265 h 176.72 v -137.8667 h 125.33334 c 32.58663,0 43.86663,20.0533 45.74663,53.2667 3.1334,52.0133 3.1334,71.44 9.4,84.6 h 193.0134 c -11.28,-13.7867 -20.0534,-32.5867 -21.9334,-52.64 l -7.52,-97.76 c -3.1333,-38.8534 -24.44,-61.4134 -50.76,-68.9334 v -1.2533 c 51.3867,-15.04 68.9334,-60.16 68.9334,-102.1467 0,-48.88 -27.5734,-92.12 -60.7867,-108.4133 -24.44,-11.9067 -55.1467,-16.2933 -105.9067,-16.2933 H 697.81813 Z m 176.72,-334.64 H 997.3648 c 29.4533,0 51.3867,8.1466 51.3867,41.9866 0,28.2 -14.4134,41.9867 -48.88003,41.9867 H 874.53813 Z"
           style="font-style:normal;font-variant:normal;font-weight:900;font-stretch:expanded;font-size:626.66668701px;font-family:'Helvetica Neue LT Std';-inkscape-font-specification:'Helvetica Neue LT Std Heavy Expanded';letter-spacing:-27.48264313px;fill:#000000;fill-opacity:1;stroke:#000000;stroke-width:7.55905533;stroke-miterlimit:4;stroke-dasharray:none;stroke-opacity:1"
           id="path39" />
        <path
           d="m 1249.9336,2140.5065 c 0,231.8666 198.6534,239.3866 305.8134,239.3866 107.16,0 305.8133,-7.52 305.8133,-239.3866 0,-231.8667 -198.6533,-239.3867 -305.8133,-239.3867 -107.16,0 -305.8134,7.52 -305.8134,239.3867 z m 188,0 c 0,-90.8667 45.7467,-126.5867 117.8134,-126.5867 72.0666,0 117.8133,35.72 117.8133,126.5867 0,90.8666 -45.7467,126.5866 -117.8133,126.5866 -72.0667,0 -117.8134,-35.72 -117.8134,-126.5866 z"
           style="font-style:normal;font-variant:normal;font-weight:900;font-stretch:expanded;font-size:626.66668701px;font-family:'Helvetica Neue LT Std';-inkscape-font-specification:'Helvetica Neue LT Std Heavy Expanded';letter-spacing:-27.48264313px;fill:#000000;fill-opacity:1;stroke:#000000;stroke-width:7.55905533;stroke-miterlimit:4;stroke-dasharray:none;stroke-opacity:1"
           id="path41" />
        <path
           d="m 1872.3728,2140.5065 c 0,231.8666 198.6534,239.3866 305.8134,239.3866 107.16,0 305.8133,-7.52 305.8133,-239.3866 0,-231.8667 -198.6533,-239.3867 -305.8133,-239.3867 -107.16,0 -305.8134,7.52 -305.8134,239.3867 z m 188,0 c 0,-90.8667 45.7467,-126.5867 117.8134,-126.5867 72.0666,0 117.8133,35.72 117.8133,126.5867 0,90.8666 -45.7467,126.5866 -117.8133,126.5866 -72.0667,0 -117.8134,-35.72 -117.8134,-126.5866 z"
           style="font-style:normal;font-variant:normal;font-weight:900;font-stretch:expanded;font-size:626.66668701px;font-family:'Helvetica Neue LT Std';-inkscape-font-specification:'Helvetica Neue LT Std Heavy Expanded';letter-spacing:-27.48264313px;fill:#000000;fill-opacity:1;stroke:#000000;stroke-width:7.55905533;stroke-miterlimit:4;stroke-dasharray:none;stroke-opacity:1"
           id="path43" />
        <path
           d="m 2518.6255,2364.2265 h 160.4267 v -319.6 h 1.2533 l 94,319.6 h 134.1067 l 94,-319.6 h 1.2533 v 319.6 h 160.4267 v -447.44 h -248.7867 l -73.32,260.0666 h -1.2533 l -73.32,-260.0666 h -248.7867 z"
           style="font-style:normal;font-variant:normal;font-weight:900;font-stretch:expanded;font-size:626.66668701px;font-family:'Helvetica Neue LT Std';-inkscape-font-specification:'Helvetica Neue LT Std Heavy Expanded';letter-spacing:-27.48264313px;fill:#000000;fill-opacity:1;stroke:#000000;stroke-width:7.55905533;stroke-miterlimit:4;stroke-dasharray:none;stroke-opacity:1"
           id="path45" />
      </g>
      <flowRoot
         style="font-style:normal;font-weight:normal;font-size:40px;line-height:1.25;font-family:sans-serif;letter-spacing:0px;word-spacing:0px;fill:#000000;fill-opacity:1;stroke:none"
         id="flowRoot830"
         xml:space="preserve"
         transform="translate(300.47201,419.0171)"><flowRegion
           id="flowRegion832"><rect
             y="1929.6394"
             x="-177.78685"
             height="241.72533"
             width="420.22345"
             id="rect834" /></flowRegion><flowPara
           id="flowPara836" /></flowRoot>      <g
         aria-label="BRANLR"
         transform="matrix(0.26416604,0,0,0.32432331,174.20607,-515.62018)"
         style="font-style:normal;font-weight:normal;font-size:40px;line-height:1.25;font-family:sans-serif;letter-spacing:0px;word-spacing:0px;fill:#000000;fill-opacity:1;stroke:none;stroke-width:7.55905533;stroke-miterlimit:4;stroke-dasharray:none"
         id="flowRoot879-5">
        <path
           d="m 870.77813,2025.8265 h 133.47997 c 35.72,0 43.8667,11.9066 43.8667,28.2 0,17.5466 -8.1467,29.4533 -43.8667,29.4533 H 870.77813 Z m 0,159.1733 h 151.02667 c 35.0933,0 45.7467,15.6667 45.7467,35.0933 0,20.0534 -10.6534,35.0934 -45.7467,35.0934 H 870.77813 Z m -172.96,179.2267 h 382.89337 c 130.9733,0 174.84,-57.6534 174.84,-145.3867 0,-33.2133 -18.8,-87.1067 -76.4534,-102.1467 v -1.2533 c 33.84,-13.16 53.2667,-47.6267 53.2667,-87.1067 0,-71.44 -40.7333,-111.5466 -132.2267,-111.5466 H 697.81813 Z"
           style="font-style:normal;font-variant:normal;font-weight:900;font-stretch:expanded;font-size:626.66668701px;font-family:'Helvetica Neue LT Std';-inkscape-font-specification:'Helvetica Neue LT Std Heavy Expanded';letter-spacing:-19.75086212px;fill:#000000;fill-opacity:1;stroke:#000000;stroke-width:7.55905533;stroke-miterlimit:4;stroke-dasharray:none;stroke-opacity:1"
           id="path26" />
        <path
           d="m 1304.734,2364.2265 h 176.72 v -137.8667 h 125.3333 c 32.5867,0 43.8667,20.0533 45.7467,53.2667 3.1333,52.0133 3.1333,71.44 9.4,84.6 h 193.0133 c -11.28,-13.7867 -20.0533,-32.5867 -21.9333,-52.64 l -7.52,-97.76 c -3.1334,-38.8534 -24.44,-61.4134 -50.76,-68.9334 v -1.2533 c 51.3866,-15.04 68.9333,-60.16 68.9333,-102.1467 0,-48.88 -27.5733,-92.12 -60.7867,-108.4133 -24.44,-11.9067 -55.1466,-16.2933 -105.9066,-16.2933 h -372.24 z m 176.72,-334.64 h 122.8266 c 29.4534,0 51.3867,8.1466 51.3867,41.9866 0,28.2 -14.4133,41.9867 -48.88,41.9867 H 1481.454 Z"
           style="font-style:normal;font-variant:normal;font-weight:900;font-stretch:expanded;font-size:626.66668701px;font-family:'Helvetica Neue LT Std';-inkscape-font-specification:'Helvetica Neue LT Std Heavy Expanded';letter-spacing:-19.75086212px;fill:#000000;fill-opacity:1;stroke:#000000;stroke-width:7.55905533;stroke-miterlimit:4;stroke-dasharray:none;stroke-opacity:1"
           id="path28" />
        <path
           d="m 2176.6612,2203.7998 h -106.5333 l 52.64,-151.6533 h 1.2533 z m -352.1867,160.4267 h 188 l 18.8,-51.3867 h 184.2401 l 18.8,51.3867 h 188 l -190.5067,-447.44 h -216.8267 z"
           style="font-style:normal;font-variant:normal;font-weight:900;font-stretch:expanded;font-size:626.66668701px;font-family:'Helvetica Neue LT Std';-inkscape-font-specification:'Helvetica Neue LT Std Heavy Expanded';letter-spacing:-19.75086212px;fill:#000000;fill-opacity:1;stroke:#000000;stroke-width:7.55905533;stroke-miterlimit:4;stroke-dasharray:none;stroke-opacity:1"
           id="path30" />
        <path
           d="m 2425.5448,2364.2265 h 169.2 v -250.6667 h 1.2533 l 188.0001,250.6667 h 193.64 v -447.44 h -169.2 v 248.16 h -1.88 l -179.2267,-248.16 h -201.7867 z"
           style="font-style:normal;font-variant:normal;font-weight:900;font-stretch:expanded;font-size:626.66668701px;font-family:'Helvetica Neue LT Std';-inkscape-font-specification:'Helvetica Neue LT Std Heavy Expanded';letter-spacing:-19.75086212px;fill:#000000;fill-opacity:1;stroke:#000000;stroke-width:7.55905533;stroke-miterlimit:4;stroke-dasharray:none;stroke-opacity:1"
           id="path32" />
        <path
           d="m 3044.7002,2364.2265 h 450.5734 v -120.32 h -273.8534 v -327.12 h -176.72 z"
           style="font-style:normal;font-variant:normal;font-weight:900;font-stretch:expanded;font-size:626.66668701px;font-family:'Helvetica Neue LT Std';-inkscape-font-specification:'Helvetica Neue LT Std Heavy Expanded';letter-spacing:-19.75086212px;fill:#000000;fill-opacity:1;stroke:#000000;stroke-width:7.55905533;stroke-miterlimit:4;stroke-dasharray:none;stroke-opacity:1"
           id="path34" />
        <path
           d="m 3524.3242,2364.2265 h 176.72 v -137.8667 h 125.3334 c 32.5866,0 43.8666,20.0533 45.7466,53.2667 3.1334,52.0133 3.1334,71.44 9.4,84.6 h 193.0134 c -11.28,-13.7867 -20.0534,-32.5867 -21.9334,-52.64 l -7.52,-97.76 c -3.1333,-38.8534 -24.44,-61.4134 -50.76,-68.9334 v -1.2533 c 51.3867,-15.04 68.9334,-60.16 68.9334,-102.1467 0,-48.88 -27.5734,-92.12 -60.7867,-108.4133 -24.44,-11.9067 -55.1467,-16.2933 -105.9067,-16.2933 h -372.24 z m 176.72,-334.64 h 122.8267 c 29.4533,0 51.3867,8.1466 51.3867,41.9866 0,28.2 -14.4134,41.9867 -48.88,41.9867 h -125.3334 z"
           style="font-style:normal;font-variant:normal;font-weight:900;font-stretch:expanded;font-size:626.66668701px;font-family:'Helvetica Neue LT Std';-inkscape-font-specification:'Helvetica Neue LT Std Heavy Expanded';letter-spacing:-19.75086212px;fill:#000000;fill-opacity:1;stroke:#000000;stroke-width:7.55905533;stroke-miterlimit:4;stroke-dasharray:none;stroke-opacity:1"
           id="path36" />
      </g>
    </g>
  </g>
</svg>
