<?xml version="1.0" encoding="UTF-8" standalone="no"?>
<!-- Created with Inkscape (http://www.inkscape.org/) -->

<svg
   xmlns:dc="http://purl.org/dc/elements/1.1/"
   xmlns:cc="http://creativecommons.org/ns#"
   xmlns:rdf="http://www.w3.org/1999/02/22-rdf-syntax-ns#"
   xmlns:svg="http://www.w3.org/2000/svg"
   xmlns="http://www.w3.org/2000/svg"
   xmlns:sodipodi="http://sodipodi.sourceforge.net/DTD/sodipodi-0.dtd"
   xmlns:inkscape="http://www.inkscape.org/namespaces/inkscape"
   width="79mm"
   height="12mm"
   viewBox="0 0 79 12"
   version="1.1"
   id="svg8"
   sodipodi:docname="branlr-room-stream-logos.svg"
   inkscape:version="0.92.3 (2405546, 2018-03-11)"
   inkscape:export-filename="/Users/DCEUUXY/racolage.xxx/docs/images/branlr-room-racolage.png"
   inkscape:export-xdpi="130.10059"
   inkscape:export-ydpi="130.10059">
  <defs
     id="defs2" />
  <sodipodi:namedview
     id="base"
     pagecolor="#ffffff"
     bordercolor="#666666"
     borderopacity="1.0"
     inkscape:pageopacity="0.0"
     inkscape:pageshadow="2"
     inkscape:zoom="0.061871843"
     inkscape:cx="3496.9276"
     inkscape:cy="-804.41627"
     inkscape:document-units="mm"
     inkscape:current-layer="g1579"
     showgrid="false"
     inkscape:window-width="1260"
     inkscape:window-height="787"
     inkscape:window-x="67"
     inkscape:window-y="27"
     inkscape:window-maximized="0" />
  <metadata
     id="metadata5">
    <rdf:RDF>
      <cc:Work
         rdf:about="">
        <dc:format>image/svg+xml</dc:format>
        <dc:type
           rdf:resource="http://purl.org/dc/dcmitype/StillImage" />
        <dc:title />
      </cc:Work>
    </rdf:RDF>
  </metadata>
  <g
     inkscape:label="Layer 1"
     inkscape:groupmode="layer"
     id="layer1"
     transform="translate(0,-285)">
    <flowRoot
       xml:space="preserve"
       id="flowRoot815"
       style="font-style:normal;font-variant:normal;font-weight:normal;font-stretch:normal;font-size:40px;line-height:1.25;font-family:Steps-Mono;-inkscape-font-specification:Steps-Mono;letter-spacing:0px;word-spacing:0px;fill:#000000;fill-opacity:1;stroke:none"
       inkscape:export-xdpi="23.060696"
       inkscape:export-ydpi="23.060696"
       inkscape:export-filename="/Users/DCEUUXY/flowRoot815.png"
       transform="scale(0.26458333)"><flowRegion
         id="flowRegion817"
         style="font-style:normal;font-variant:normal;font-weight:normal;font-stretch:normal;font-family:Steps-Mono;-inkscape-font-specification:Steps-Mono"><rect
           id="rect819"
           width="831.42859"
           height="188.57143"
           x="20"
           y="276.80539"
           style="font-style:normal;font-variant:normal;font-weight:normal;font-stretch:normal;font-family:Steps-Mono;-inkscape-font-specification:Steps-Mono" /></flowRegion><flowPara
         id="flowPara821" /></flowRoot>    <g
       aria-label="racolage.xxx"
       transform="matrix(3.5244509,0,0,3.5244509,1683.2728,-309.87871)"
       style="font-style:normal;font-weight:normal;font-size:40px;line-height:1.25;font-family:sans-serif;letter-spacing:0px;word-spacing:0px;fill:#000000;fill-opacity:1;stroke:none;stroke-width:0.62362206;stroke-miterlimit:4;stroke-dasharray:none"
       id="flowRoot823">
      <path
         d="m -49.269531,145.10937 q -0.605469,-0.35156 -1.328125,-0.50781 -0.703125,-0.17578 -1.5625,-0.17578 -3.046875,0 -4.6875,1.99219 -1.621094,1.97265 -1.621094,5.68359 V 163.625 h -3.613281 V 141.75 h 3.613281 v 3.39844 q 1.132813,-1.99219 2.949219,-2.94922 1.816406,-0.97656 4.414062,-0.97656 0.371094,0 0.820313,0.0586 0.449219,0.0391 0.996094,0.13672 z"
         style="font-style:normal;font-variant:normal;font-weight:normal;font-stretch:normal;font-family:Steps-Mono;-inkscape-font-specification:Steps-Mono;fill:#ffffff;fill-opacity:1;stroke:#000000;stroke-width:0.62362206;stroke-miterlimit:4;stroke-dasharray:none;stroke-opacity:1"
         id="path52" />
      <path
         d="m -35.519531,152.62891 q -4.355469,0 -6.035156,0.99609 -1.679688,0.99609 -1.679688,3.39844 0,1.91406 1.25,3.04687 1.269531,1.11328 3.4375,1.11328 2.988281,0 4.785156,-2.10937 1.816407,-2.12891 1.816407,-5.64453 v -0.80078 z m 7.167969,-1.48438 V 163.625 h -3.59375 v -3.32031 q -1.230469,1.99218 -3.066407,2.94922 -1.835937,0.9375 -4.492187,0.9375 -3.359375,0 -5.351563,-1.875 -1.972656,-1.89454 -1.972656,-5.0586 0,-3.6914 2.460938,-5.5664 2.480468,-1.875 7.382812,-1.875 h 5.039063 v -0.35157 q 0,-2.48047 -1.640625,-3.82812 -1.621094,-1.36719 -4.570313,-1.36719 -1.875,0 -3.652344,0.44922 -1.777343,0.44922 -3.417968,1.34766 v -3.32032 q 1.972656,-0.76172 3.828125,-1.13281 1.855468,-0.39062 3.613281,-0.39062 4.746094,0 7.089844,2.46093 2.34375,2.46094 2.34375,7.46094 z"
         style="font-style:normal;font-variant:normal;font-weight:normal;font-stretch:normal;font-family:Steps-Mono;-inkscape-font-specification:Steps-Mono;fill:#ffffff;fill-opacity:1;stroke:#000000;stroke-width:0.62362206;stroke-miterlimit:4;stroke-dasharray:none;stroke-opacity:1"
         id="path54" />
      <path
         d="m -5.1875,142.58984 v 3.35938 q -1.5234375,-0.83985 -3.0664063,-1.25 -1.5234375,-0.42969 -3.0859377,-0.42969 -3.496094,0 -5.429687,2.22656 -1.933594,2.20703 -1.933594,6.21094 0,4.00391 1.933594,6.23047 1.933593,2.20703 5.429687,2.20703 1.5625002,0 3.0859377,-0.41016 1.5429688,-0.42968 3.0664063,-1.26953 v 3.32032 q -1.5039062,0.70312 -3.125,1.05468 -1.6015625,0.35157 -3.417969,0.35157 -4.941406,0 -7.851562,-3.10547 -2.910156,-3.10547 -2.910156,-8.37891 0,-5.35156 2.929687,-8.41797 2.949219,-3.0664 8.066406,-3.0664 1.6601565,0 3.2421877,0.35156 1.5820313,0.33203 3.0664063,1.01562 z"
         style="font-style:normal;font-variant:normal;font-weight:normal;font-stretch:normal;font-family:Steps-Mono;-inkscape-font-specification:Steps-Mono;fill:#ffffff;fill-opacity:1;stroke:#000000;stroke-width:0.62362206;stroke-miterlimit:4;stroke-dasharray:none;stroke-opacity:1"
         id="path56" />
      <path
         d="m 9.578125,144.26953 q -2.890625,0 -4.5703125,2.26563 -1.6796875,2.24609 -1.6796875,6.17187 0,3.92578 1.6601562,6.19141 1.6796875,2.24609 4.5898438,2.24609 2.871094,0 4.550781,-2.26562 1.679688,-2.26563 1.679688,-6.17188 0,-3.88672 -1.679688,-6.15234 -1.679687,-2.28516 -4.550781,-2.28516 z m 0,-3.04687 q 4.6875,0 7.363281,3.04687 2.675781,3.04688 2.675781,8.4375 0,5.37109 -2.675781,8.4375 -2.675781,3.04688 -7.363281,3.04688 -4.7070313,0 -7.3828125,-3.04688 -2.65625,-3.06641 -2.65625,-8.4375 0,-5.39062 2.65625,-8.4375 2.6757812,-3.04687 7.3828125,-3.04687 z"
         style="font-style:normal;font-variant:normal;font-weight:normal;font-stretch:normal;font-family:Steps-Mono;-inkscape-font-specification:Steps-Mono;fill:#ffffff;fill-opacity:1;stroke:#000000;stroke-width:0.62362206;stroke-miterlimit:4;stroke-dasharray:none;stroke-opacity:1"
         id="path58" />
      <path
         d="m 25.554687,133.23437 h 3.59375 V 163.625 h -3.59375 z"
         style="font-style:normal;font-variant:normal;font-weight:normal;font-stretch:normal;font-family:Steps-Mono;-inkscape-font-specification:Steps-Mono;fill:#ffffff;fill-opacity:1;stroke:#000000;stroke-width:0.62362206;stroke-miterlimit:4;stroke-dasharray:none;stroke-opacity:1"
         id="path60" />
      <path
         d="m 46.589844,152.62891 q -4.355469,0 -6.035157,0.99609 -1.679687,0.99609 -1.679687,3.39844 0,1.91406 1.25,3.04687 1.269531,1.11328 3.4375,1.11328 2.988281,0 4.785156,-2.10937 1.816406,-2.12891 1.816406,-5.64453 v -0.80078 z m 7.167968,-1.48438 V 163.625 h -3.59375 v -3.32031 q -1.230468,1.99218 -3.066406,2.94922 -1.835937,0.9375 -4.492187,0.9375 -3.359375,0 -5.351563,-1.875 -1.972656,-1.89454 -1.972656,-5.0586 0,-3.6914 2.460937,-5.5664 2.480469,-1.875 7.382813,-1.875 h 5.039062 v -0.35157 q 0,-2.48047 -1.640625,-3.82812 -1.621093,-1.36719 -4.570312,-1.36719 -1.875,0 -3.652344,0.44922 -1.777344,0.44922 -3.417969,1.34766 v -3.32032 q 1.972657,-0.76172 3.828125,-1.13281 1.855469,-0.39062 3.613282,-0.39062 4.746093,0 7.089843,2.46093 2.34375,2.46094 2.34375,7.46094 z"
         style="font-style:normal;font-variant:normal;font-weight:normal;font-stretch:normal;font-family:Steps-Mono;-inkscape-font-specification:Steps-Mono;fill:#ffffff;fill-opacity:1;stroke:#000000;stroke-width:0.62362206;stroke-miterlimit:4;stroke-dasharray:none;stroke-opacity:1"
         id="path62" />
      <path
         d="m 75.574219,152.43359 q 0,-3.90625 -1.621094,-6.05468 -1.601563,-2.14844 -4.511719,-2.14844 -2.890625,0 -4.511719,2.14844 -1.601562,2.14843 -1.601562,6.05468 0,3.88672 1.601562,6.03516 1.621094,2.14844 4.511719,2.14844 2.910156,0 4.511719,-2.14844 1.621094,-2.14844 1.621094,-6.03516 z m 3.59375,8.47657 q 0,5.58593 -2.480469,8.30078 -2.480469,2.73437 -7.597656,2.73437 -1.894532,0 -3.574219,-0.29297 -1.679688,-0.27343 -3.261719,-0.85937 v -3.4961 q 1.582031,0.85938 3.125,1.26954 1.542969,0.41015 3.144531,0.41015 3.535157,0 5.292969,-1.85547 1.757813,-1.83593 1.757813,-5.5664 v -1.77735 q -1.113282,1.9336 -2.851563,2.89063 -1.738281,0.95703 -4.160156,0.95703 -4.023438,0 -6.484375,-3.06641 -2.460938,-3.0664 -2.460938,-8.125 0,-5.07812 2.460938,-8.14453 2.460937,-3.0664 6.484375,-3.0664 2.421875,0 4.160156,0.95703 1.738281,0.95703 2.851563,2.89062 V 141.75 h 3.59375 z"
         style="font-style:normal;font-variant:normal;font-weight:normal;font-stretch:normal;font-family:Steps-Mono;-inkscape-font-specification:Steps-Mono;fill:#ffffff;fill-opacity:1;stroke:#000000;stroke-width:0.62362206;stroke-miterlimit:4;stroke-dasharray:none;stroke-opacity:1"
         id="path64" />
      <path
         d="m 105.28125,151.78906 v 1.75781 H 88.757812 q 0.234375,3.71094 2.226563,5.66407 2.011719,1.93359 5.585937,1.93359 2.070313,0 4.003908,-0.50781 1.95312,-0.50781 3.86719,-1.52344 v 3.39844 q -1.9336,0.82031 -3.96485,1.25 -2.031248,0.42969 -4.121091,0.42969 -5.234375,0 -8.300782,-3.04688 -3.046875,-3.04687 -3.046875,-8.24219 0,-5.37109 2.890625,-8.51562 2.910157,-3.16406 7.832032,-3.16406 4.414061,0 6.972661,2.85156 2.57812,2.83203 2.57812,7.71484 z m -3.59375,-1.05469 q -0.0391,-2.94921 -1.66016,-4.70703 -1.601559,-1.75781 -4.257809,-1.75781 -3.007812,0 -4.824219,1.69922 -1.796875,1.69922 -2.070312,4.78516 z"
         style="font-style:normal;font-variant:normal;font-weight:normal;font-stretch:normal;font-family:Steps-Mono;-inkscape-font-specification:Steps-Mono;fill:#ffffff;fill-opacity:1;stroke:#000000;stroke-width:0.62362206;stroke-miterlimit:4;stroke-dasharray:none;stroke-opacity:1"
         id="path66" />
      <path
         d="m 111.6875,158.66406 h 4.12109 v 4.96094 h -4.12109 z"
         style="font-style:normal;font-variant:normal;font-weight:normal;font-stretch:normal;font-family:Steps-Mono;-inkscape-font-specification:Steps-Mono;fill:#ffffff;fill-opacity:1;stroke:#000000;stroke-width:0.62362206;stroke-miterlimit:4;stroke-dasharray:none;stroke-opacity:1"
         id="path68" />
      <path
         d="m 142.09766,141.75 -7.91016,10.64453 8.32031,11.23047 h -4.23828 l -6.36719,-8.59375 -6.36718,8.59375 h -4.23828 l 8.49609,-11.44531 -7.77344,-10.42969 h 4.23828 l 5.80078,7.79297 5.80078,-7.79297 z"
         style="font-style:normal;font-variant:normal;font-weight:normal;font-stretch:normal;font-family:Steps-Mono;-inkscape-font-specification:Steps-Mono;fill:#ffffff;fill-opacity:1;stroke:#000000;stroke-width:0.62362206;stroke-miterlimit:4;stroke-dasharray:none;stroke-opacity:1"
         id="path70" />
      <path
         d="m 165.76953,141.75 -7.91016,10.64453 8.32032,11.23047 h -4.23828 l -6.36719,-8.59375 -6.36719,8.59375 h -4.23828 l 8.49609,-11.44531 -7.77343,-10.42969 h 4.23828 l 5.80078,7.79297 5.80078,-7.79297 z"
         style="font-style:normal;font-variant:normal;font-weight:normal;font-stretch:normal;font-family:Steps-Mono;-inkscape-font-specification:Steps-Mono;fill:#ffffff;fill-opacity:1;stroke:#000000;stroke-width:0.62362206;stroke-miterlimit:4;stroke-dasharray:none;stroke-opacity:1"
         id="path72" />
      <path
         d="m 189.44141,141.75 -7.91016,10.64453 8.32031,11.23047 h -4.23828 l -6.36719,-8.59375 -6.36718,8.59375 h -4.23829 l 8.4961,-11.44531 -7.77344,-10.42969 h 4.23828 l 5.80078,7.79297 5.80078,-7.79297 z"
         style="font-style:normal;font-variant:normal;font-weight:normal;font-stretch:normal;font-family:Steps-Mono;-inkscape-font-specification:Steps-Mono;fill:#ffffff;fill-opacity:1;stroke:#000000;stroke-width:0.62362206;stroke-miterlimit:4;stroke-dasharray:none;stroke-opacity:1"
         id="path74" />
    </g>
    <g
       id="g1579"
       inkscape:export-xdpi="23.060696"
       inkscape:export-ydpi="23.060696">
      <g
         id="g869"
         transform="translate(300.47201,419.0171)">
        <path
           transform="matrix(0.26458333,0,0,0.26458333,0,-703)"
           id="path872"
           d="M 1889.7637,3.8613281 A 1885.9034,1885.9034 0 0 0 3.8613281,1889.7637 1885.9034,1885.9034 0 0 0 1889.7637,3775.668 1885.9034,1885.9034 0 0 0 3775.668,1889.7637 1885.9034,1885.9034 0 0 0 1889.7637,3.8613281 Z m 0,59.2070309 A 1826.6946,1826.6946 0 0 1 3716.459,1889.7637 1826.6946,1826.6946 0 0 1 1889.7637,3716.459 1826.6946,1826.6946 0 0 1 63.068359,1889.7637 1826.6946,1826.6946 0 0 1 1889.7637,63.068359 Z"
           style="fill:#ffffff;fill-opacity:1;stroke:#000000;stroke-width:7.72078085;stroke-miterlimit:4;stroke-dasharray:none;stroke-opacity:1"
           inkscape:connector-curvature="0" />
      </g>
      <g
         aria-label="ROOM"
         transform="matrix(0.26416604,0,0,0.32432331,286.49315,-358.91018)"
         style="font-style:normal;font-weight:normal;font-size:40px;line-height:1.25;font-family:sans-serif;letter-spacing:0px;word-spacing:0px;fill:#000000;fill-opacity:1;stroke:none;stroke-width:7.55905533;stroke-miterlimit:4;stroke-dasharray:none"
         id="flowRoot879">
        <path
           d="m 697.81813,2364.2265 h 176.72 v -137.8667 h 125.33334 c 32.58663,0 43.86663,20.0533 45.74663,53.2667 3.1334,52.0133 3.1334,71.44 9.4,84.6 h 193.0134 c -11.28,-13.7867 -20.0534,-32.5867 -21.9334,-52.64 l -7.52,-97.76 c -3.1333,-38.8534 -24.44,-61.4134 -50.76,-68.9334 v -1.2533 c 51.3867,-15.04 68.9334,-60.16 68.9334,-102.1467 0,-48.88 -27.5734,-92.12 -60.7867,-108.4133 -24.44,-11.9067 -55.1467,-16.2933 -105.9067,-16.2933 H 697.81813 Z m 176.72,-334.64 H 997.3648 c 29.4533,0 51.3867,8.1466 51.3867,41.9866 0,28.2 -14.4134,41.9867 -48.88003,41.9867 H 874.53813 Z"
           style="font-style:normal;font-variant:normal;font-weight:900;font-stretch:expanded;font-size:626.66668701px;font-family:'Helvetica Neue LT Std';-inkscape-font-specification:'Helvetica Neue LT Std Heavy Expanded';letter-spacing:-27.48264313px;fill:#ffffff;fill-opacity:1;stroke:#000000;stroke-width:7.55905533;stroke-miterlimit:4;stroke-dasharray:none;stroke-opacity:1"
           id="path43" />
        <path
           d="m 1249.9336,2140.5065 c 0,231.8666 198.6534,239.3866 305.8134,239.3866 107.16,0 305.8133,-7.52 305.8133,-239.3866 0,-231.8667 -198.6533,-239.3867 -305.8133,-239.3867 -107.16,0 -305.8134,7.52 -305.8134,239.3867 z m 188,0 c 0,-90.8667 45.7467,-126.5867 117.8134,-126.5867 72.0666,0 117.8133,35.72 117.8133,126.5867 0,90.8666 -45.7467,126.5866 -117.8133,126.5866 -72.0667,0 -117.8134,-35.72 -117.8134,-126.5866 z"
           style="font-style:normal;font-variant:normal;font-weight:900;font-stretch:expanded;font-size:626.66668701px;font-family:'Helvetica Neue LT Std';-inkscape-font-specification:'Helvetica Neue LT Std Heavy Expanded';letter-spacing:-27.48264313px;fill:#ffffff;fill-opacity:1;stroke:#000000;stroke-width:7.55905533;stroke-miterlimit:4;stroke-dasharray:none;stroke-opacity:1"
           id="path45" />
        <path
           d="m 1872.3728,2140.5065 c 0,231.8666 198.6534,239.3866 305.8134,239.3866 107.16,0 305.8133,-7.52 305.8133,-239.3866 0,-231.8667 -198.6533,-239.3867 -305.8133,-239.3867 -107.16,0 -305.8134,7.52 -305.8134,239.3867 z m 188,0 c 0,-90.8667 45.7467,-126.5867 117.8134,-126.5867 72.0666,0 117.8133,35.72 117.8133,126.5867 0,90.8666 -45.7467,126.5866 -117.8133,126.5866 -72.0667,0 -117.8134,-35.72 -117.8134,-126.5866 z"
           style="font-style:normal;font-variant:normal;font-weight:900;font-stretch:expanded;font-size:626.66668701px;font-family:'Helvetica Neue LT Std';-inkscape-font-specification:'Helvetica Neue LT Std Heavy Expanded';letter-spacing:-27.48264313px;fill:#ffffff;fill-opacity:1;stroke:#000000;stroke-width:7.55905533;stroke-miterlimit:4;stroke-dasharray:none;stroke-opacity:1"
           id="path47" />
        <path
           d="m 2518.6255,2364.2265 h 160.4267 v -319.6 h 1.2533 l 94,319.6 h 134.1067 l 94,-319.6 h 1.2533 v 319.6 h 160.4267 v -447.44 h -248.7867 l -73.32,260.0666 h -1.2533 l -73.32,-260.0666 h -248.7867 z"
           style="font-style:normal;font-variant:normal;font-weight:900;font-stretch:expanded;font-size:626.66668701px;font-family:'Helvetica Neue LT Std';-inkscape-font-specification:'Helvetica Neue LT Std Heavy Expanded';letter-spacing:-27.48264313px;fill:#ffffff;fill-opacity:1;stroke:#000000;stroke-width:7.55905533;stroke-miterlimit:4;stroke-dasharray:none;stroke-opacity:1"
           id="path49" />
      </g>
      <flowRoot
         style="font-style:normal;font-weight:normal;font-size:40px;line-height:1.25;font-family:sans-serif;letter-spacing:0px;word-spacing:0px;fill:#000000;fill-opacity:1;stroke:none"
         id="flowRoot830"
         xml:space="preserve"
         transform="translate(300.47201,419.0171)"><flowRegion
           id="flowRegion832"><rect
             y="1929.6394"
             x="-177.78685"
             height="241.72533"
             width="420.22345"
             id="rect834" /></flowRegion><flowPara
           id="flowPara836" /></flowRoot>      <g
         aria-label="BRANLR"
         transform="matrix(0.26416604,0,0,0.32432331,174.20607,-515.62018)"
         style="font-style:normal;font-weight:normal;font-size:40px;line-height:1.25;font-family:sans-serif;letter-spacing:0px;word-spacing:0px;fill:#000000;fill-opacity:1;stroke:none;stroke-width:7.55905533;stroke-miterlimit:4;stroke-dasharray:none"
         id="flowRoot879-5">
        <path
           d="m 870.77813,2025.8265 h 133.47997 c 35.72,0 43.8667,11.9066 43.8667,28.2 0,17.5466 -8.1467,29.4533 -43.8667,29.4533 H 870.77813 Z m 0,159.1733 h 151.02667 c 35.0933,0 45.7467,15.6667 45.7467,35.0933 0,20.0534 -10.6534,35.0934 -45.7467,35.0934 H 870.77813 Z m -172.96,179.2267 h 382.89337 c 130.9733,0 174.84,-57.6534 174.84,-145.3867 0,-33.2133 -18.8,-87.1067 -76.4534,-102.1467 v -1.2533 c 33.84,-13.16 53.2667,-47.6267 53.2667,-87.1067 0,-71.44 -40.7333,-111.5466 -132.2267,-111.5466 H 697.81813 Z"
           style="font-style:normal;font-variant:normal;font-weight:900;font-stretch:expanded;font-size:626.66668701px;font-family:'Helvetica Neue LT Std';-inkscape-font-specification:'Helvetica Neue LT Std Heavy Expanded';letter-spacing:-19.75086212px;fill:#ffffff;fill-opacity:1;stroke:#000000;stroke-width:7.55905533;stroke-miterlimit:4;stroke-dasharray:none;stroke-opacity:1"
           id="path30" />
        <path
           d="m 1304.734,2364.2265 h 176.72 v -137.8667 h 125.3333 c 32.5867,0 43.8667,20.0533 45.7467,53.2667 3.1333,52.0133 3.1333,71.44 9.4,84.6 h 193.0133 c -11.28,-13.7867 -20.0533,-32.5867 -21.9333,-52.64 l -7.52,-97.76 c -3.1334,-38.8534 -24.44,-61.4134 -50.76,-68.9334 v -1.2533 c 51.3866,-15.04 68.9333,-60.16 68.9333,-102.1467 0,-48.88 -27.5733,-92.12 -60.7867,-108.4133 -24.44,-11.9067 -55.1466,-16.2933 -105.9066,-16.2933 h -372.24 z m 176.72,-334.64 h 122.8266 c 29.4534,0 51.3867,8.1466 51.3867,41.9866 0,28.2 -14.4133,41.9867 -48.88,41.9867 H 1481.454 Z"
           style="font-style:normal;font-variant:normal;font-weight:900;font-stretch:expanded;font-size:626.66668701px;font-family:'Helvetica Neue LT Std';-inkscape-font-specification:'Helvetica Neue LT Std Heavy Expanded';letter-spacing:-19.75086212px;fill:#ffffff;fill-opacity:1;stroke:#000000;stroke-width:7.55905533;stroke-miterlimit:4;stroke-dasharray:none;stroke-opacity:1"
           id="path32" />
        <path
           d="m 2176.6612,2203.7998 h -106.5333 l 52.64,-151.6533 h 1.2533 z m -352.1867,160.4267 h 188 l 18.8,-51.3867 h 184.2401 l 18.8,51.3867 h 188 l -190.5067,-447.44 h -216.8267 z"
           style="font-style:normal;font-variant:normal;font-weight:900;font-stretch:expanded;font-size:626.66668701px;font-family:'Helvetica Neue LT Std';-inkscape-font-specification:'Helvetica Neue LT Std Heavy Expanded';letter-spacing:-19.75086212px;fill:#ffffff;fill-opacity:1;stroke:#000000;stroke-width:7.55905533;stroke-miterlimit:4;stroke-dasharray:none;stroke-opacity:1"
           id="path34" />
        <path
           d="m 2425.5448,2364.2265 h 169.2 v -250.6667 h 1.2533 l 188.0001,250.6667 h 193.64 v -447.44 h -169.2 v 248.16 h -1.88 l -179.2267,-248.16 h -201.7867 z"
           style="font-style:normal;font-variant:normal;font-weight:900;font-stretch:expanded;font-size:626.66668701px;font-family:'Helvetica Neue LT Std';-inkscape-font-specification:'Helvetica Neue LT Std Heavy Expanded';letter-spacing:-19.75086212px;fill:#ffffff;fill-opacity:1;stroke:#000000;stroke-width:7.55905533;stroke-miterlimit:4;stroke-dasharray:none;stroke-opacity:1"
           id="path36" />
        <path
           d="m 3044.7002,2364.2265 h 450.5734 v -120.32 h -273.8534 v -327.12 h -176.72 z"
           style="font-style:normal;font-variant:normal;font-weight:900;font-stretch:expanded;font-size:626.66668701px;font-family:'Helvetica Neue LT Std';-inkscape-font-specification:'Helvetica Neue LT Std Heavy Expanded';letter-spacing:-19.75086212px;fill:#ffffff;fill-opacity:1;stroke:#000000;stroke-width:7.55905533;stroke-miterlimit:4;stroke-dasharray:none;stroke-opacity:1"
           id="path38" />
        <path
           d="m 3524.3242,2364.2265 h 176.72 v -137.8667 h 125.3334 c 32.5866,0 43.8666,20.0533 45.7466,53.2667 3.1334,52.0133 3.1334,71.44 9.4,84.6 h 193.0134 c -11.28,-13.7867 -20.0534,-32.5867 -21.9334,-52.64 l -7.52,-97.76 c -3.1333,-38.8534 -24.44,-61.4134 -50.76,-68.9334 v -1.2533 c 51.3867,-15.04 68.9334,-60.16 68.9334,-102.1467 0,-48.88 -27.5734,-92.12 -60.7867,-108.4133 -24.44,-11.9067 -55.1467,-16.2933 -105.9067,-16.2933 h -372.24 z m 176.72,-334.64 h 122.8267 c 29.4533,0 51.3867,8.1466 51.3867,41.9866 0,28.2 -14.4134,41.9867 -48.88,41.9867 h -125.3334 z"
           style="font-style:normal;font-variant:normal;font-weight:900;font-stretch:expanded;font-size:626.66668701px;font-family:'Helvetica Neue LT Std';-inkscape-font-specification:'Helvetica Neue LT Std Heavy Expanded';letter-spacing:-19.75086212px;fill:#ffffff;fill-opacity:1;stroke:#000000;stroke-width:7.55905533;stroke-miterlimit:4;stroke-dasharray:none;stroke-opacity:1"
           id="path40" />
      </g>
    </g>
  </g>
</svg>
