<svg id="content" xmlns="http://www.w3.org/2000/svg" viewBox="0 0 30 30"><defs><style>.cls-1{fill:red;}</style></defs><title>Racolage_web_12</title><path class="cls-1" d="M22.4,26.34l-2.14-.12L15,20.33,9.74,26.22l-2.14.12-3-2.72L4.44,21.48,10.23,15,4.44,8.52,4.56,6.38l3-2.72L9.74,3.78,15,9.67l5.26-5.89,2.14-.12,3,2.72,0.12,2.14L19.77,15l5.79,6.48-0.12,2.14Zm-1.2-2.07,0.48,0,1.81-1.62,0-.48L17.08,15l6.43-7.2,0-.48L21.69,5.7l-0.49,0L15,12.67,8.8,5.73l-0.48,0L6.51,7.32l0,0.48L12.91,15,6.48,22.2l0,0.48L8.31,24.3l0.48,0L15,17.33Z"/></svg>
