<?xml version="1.0" encoding="UTF-8" standalone="no"?>
<svg
   xmlns:dc="http://purl.org/dc/elements/1.1/"
   xmlns:cc="http://creativecommons.org/ns#"
   xmlns:rdf="http://www.w3.org/1999/02/22-rdf-syntax-ns#"
   xmlns:svg="http://www.w3.org/2000/svg"
   xmlns="http://www.w3.org/2000/svg"
   xmlns:sodipodi="http://sodipodi.sourceforge.net/DTD/sodipodi-0.dtd"
   xmlns:inkscape="http://www.inkscape.org/namespaces/inkscape"
   id="content"
   viewBox="0 0 215 77.45"
   version="1.1"
   inkscape:version="0.48.4 r9939"
   width="100%"
   height="100%"
   sodipodi:docname="logo.svg">
  <metadata
     id="metadata19">
    <rdf:RDF>
      <cc:Work
         rdf:about="">
        <dc:format>image/svg+xml</dc:format>
        <dc:type
           rdf:resource="http://purl.org/dc/dcmitype/StillImage" />
        <dc:title>Racolage_web_12</dc:title>
      </cc:Work>
    </rdf:RDF>
  </metadata>
  <sodipodi:namedview
     pagecolor="#ffffff"
     bordercolor="#666666"
     borderopacity="1"
     objecttolerance="10"
     gridtolerance="10"
     guidetolerance="10"
     inkscape:pageopacity="0"
     inkscape:pageshadow="2"
     inkscape:window-width="1317"
     inkscape:window-height="744"
     id="namedview17"
     showgrid="false"
     inkscape:zoom="4.6833491"
     inkscape:cx="101.79212"
     inkscape:cy="32.539607"
     inkscape:window-x="49"
     inkscape:window-y="24"
     inkscape:window-maximized="1"
     inkscape:current-layer="content" />
  <defs
     id="defs3">
    <style
       id="style5">.cls-1{fill:#eff5f9;}</style>
  </defs>
  <title
     id="title7">Racolage_web_12</title>
  <path
     class="cls-1"
     d="M101.61,61.55L97,61.29,86.88,50,76.8,61.29l-4.65.26-6.3-5.64-0.26-4.64L76.8,38.73,65.59,26.19l0.26-4.64,6.3-5.64,4.64,0.26L86.88,27.45,97,16.17l4.65-.26,6.3,5.64,0.26,4.64L97,38.73l11.21,12.54-0.26,4.64Zm-30.88-8,3.22,2.88,0.51,0L86.88,42.5l12.43,13.9,0.51,0L103,53.56l0-.51L90.26,38.73,103.07,24.4l0-.51L99.83,21l-0.51,0L86.88,34.95,74.45,21l-0.51,0-3.22,2.88,0,0.51L83.51,38.73,70.7,53.05Z"
     id="path9"
     style="fill:#ff4e44;fill-opacity:1" />
  <path
     class="cls-1"
     d="M149.44,61.55l-4.64-.26L134.71,50,124.63,61.29l-4.64.26-6.31-5.64-0.26-4.64,11.21-12.54L113.42,26.19l0.26-4.64,6.3-5.64,4.64,0.26,10.08,11.28L144.8,16.17l4.64-.26,6.3,5.64L156,26.19,144.8,38.73,156,51.26l-0.26,4.64Zm-2.3-5.14,0.51,0,3.22-2.88,0-.51L138.09,38.73,150.9,24.4l0-.51L147.65,21l-0.51,0-12.43,13.9L122.28,21l-0.51,0-3.22,2.88,0,0.51,12.81,14.32L118.53,53.05l0,0.51,3.22,2.88,0.51,0,12.43-13.9Z"
     id="path11"
     style="fill:#ff4e44;fill-opacity:1" />
  <path
     class="cls-1"
     d="M167.81,61.55l-6.31-5.64-0.26-4.64,11.21-12.54L161.25,26.19l0.26-4.64,6.3-5.64,4.65,0.26,10.08,11.28,10.08-11.28,4.64-.26,6.3,5.64,0.26,4.64L192.63,38.73l11.21,12.54-0.26,4.64-6.3,5.64-4.65-.26L182.54,50,172.46,61.29ZM195,56.41l0.51,0,3.22-2.88,0-.51L185.92,38.73,198.73,24.4l0-.51L195.48,21,195,21l-12.43,13.9L170.11,21l-0.51,0-3.22,2.88,0,0.51,12.81,14.32L166.35,53.05l0,0.51,3.22,2.88,0.51,0,12.43-13.9Z"
     id="path13"
     style="fill:#ff4e44;fill-opacity:1" />
  <path
     class="cls-1"
     d="M57.9,70.81H50.58l-0.67-.35L23,54.38H14.31l-3.09-3.09V26.06L14.31,23H23L50.51,6.64h7.33Zm-6-5h1l0-54.17h-1L24.33,28H16.38l-0.16.16V49.22l0.16,0.16h8Z"
     id="path15"
     style="fill:#ff4e44;fill-opacity:1" />
</svg>
