<svg id="content" xmlns="http://www.w3.org/2000/svg" viewBox="0 0 184 169"><defs><style>.cls-1{fill:#eff5f9;}</style></defs><title>Racolage_web_12</title><polygon class="cls-1" points="81.22 57.58 81.09 55.34 76.96 51.65 74.72 51.77 64.96 62.7 55.19 51.77 52.95 51.65 48.82 55.34 48.7 57.58 59.12 69.23 48.7 80.88 48.82 83.12 52.95 86.81 55.19 86.69 64.96 75.76 74.72 86.69 76.96 86.81 81.09 83.12 81.22 80.88 70.8 69.23 81.22 57.58"/><polygon class="cls-1" points="135.3 57.58 135.18 55.34 131.05 51.65 128.81 51.77 119.04 62.7 109.28 51.77 107.04 51.65 102.91 55.34 102.78 57.58 113.2 69.23 102.78 80.88 102.91 83.12 107.04 86.81 109.28 86.69 119.04 75.76 128.81 86.69 131.05 86.81 135.18 83.12 135.3 80.88 124.88 69.23 135.3 57.58"/><path class="cls-1" d="M92,163.92A79.42,79.42,0,1,1,171.42,84.5h0A79.52,79.52,0,0,1,92,163.92ZM92,14.07A70.42,70.42,0,1,0,162.42,84.5,70.51,70.51,0,0,0,92,14.07Z"/><circle class="cls-1" cx="92" cy="121.57" r="13"/></svg>