<?xml version="1.0" encoding="UTF-8" standalone="no"?>
<svg
   xmlns:dc="http://purl.org/dc/elements/1.1/"
   xmlns:cc="http://creativecommons.org/ns#"
   xmlns:rdf="http://www.w3.org/1999/02/22-rdf-syntax-ns#"
   xmlns:svg="http://www.w3.org/2000/svg"
   xmlns="http://www.w3.org/2000/svg"
   xmlns:sodipodi="http://sodipodi.sourceforge.net/DTD/sodipodi-0.dtd"
   xmlns:inkscape="http://www.inkscape.org/namespaces/inkscape"
   version="1.1"
   x="0px"
   y="0px"
   viewBox="0 0 100 125"
   id="svg2"
   inkscape:version="0.48.4 r9939"
   width="100%"
   height="100%"
   sodipodi:docname="mail-red.svg">
  <metadata
     id="metadata16">
    <rdf:RDF>
      <cc:Work
         rdf:about="">
        <dc:format>image/svg+xml</dc:format>
        <dc:type
           rdf:resource="http://purl.org/dc/dcmitype/StillImage" />
        <dc:title></dc:title>
      </cc:Work>
    </rdf:RDF>
  </metadata>
  <defs
     id="defs14" />
  <sodipodi:namedview
     pagecolor="#ffffff"
     bordercolor="#666666"
     borderopacity="1"
     objecttolerance="10"
     gridtolerance="10"
     guidetolerance="10"
     inkscape:pageopacity="0"
     inkscape:pageshadow="2"
     inkscape:window-width="1317"
     inkscape:window-height="744"
     id="namedview12"
     showgrid="false"
     inkscape:zoom="3.776"
     inkscape:cx="104.7739"
     inkscape:cy="65.866729"
     inkscape:window-x="49"
     inkscape:window-y="24"
     inkscape:window-maximized="1"
     inkscape:current-layer="svg2" />
  <rect
     style="fill:#ffffff;fill-opacity:1;fill-rule:nonzero;stroke:none"
     id="rect2983"
     width="122"
     height="110"
     x="0"
     y="15"
     inkscape:export-xdpi="50"
     inkscape:export-ydpi="50"
     inkscape:export-filename="/home/spiq/racolage/racolage.xxx/docs/images/mail-red.png" />
  <g
     transform="matrix(1.010617,0,0,1.3461531,3.8806929,-1272.5427)"
     id="g4"
     inkscape:export-filename="/home/spiq/racolage/racolage.xxx/docs/images/mail-red.png"
     inkscape:export-xdpi="50"
     inkscape:export-ydpi="50">
    <path
       style="color:#000000;fill:#ff4e44;fill-opacity:1;stroke:none;marker:none;visibility:visible;display:inline;overflow:visible;enable-background:accumulate"
       d="m 5.7626701,960.17511 c -1.938215,0 -3.7240227,0.5866 -5.22998473,1.60714 L 52.275171,1004.193 c 2.74017,2.2444 5.658259,2.244 8.40227,0 L 112.5058,961.78225 c -1.50596,-1.02054 -3.29176,-1.60714 -5.22997,-1.60714 l -101.5131599,0 z m -8.7880201,6.02678 c -0.5083888,1.22138 -0.8145744,2.55294 -0.8145744,3.97322 l 0,54.28569 c 0,5.5402 4.28275713,10.0001 9.6025945,10.0001 l 101.5131599,0 c 5.31983,0 9.60258,-4.4599 9.60258,-10.0001 l 0,-54.28569 c 0,-1.42028 -0.30618,-2.75184 -0.81458,-3.97322 l -51.956891,42.45561 c -4.508967,3.6869 -10.752711,3.6926 -15.261266,0 L -3.02535,966.20189 z"
       visibility="visible"
       display="inline"
       overflow="visible"
       id="path6"
       inkscape:connector-curvature="0"
       inkscape:export-filename="/home/spiq/racolage/racolage.xxx/docs/images/mail.png"
       inkscape:export-xdpi="50"
       inkscape:export-ydpi="50" />
  </g>
</svg>
