<?xml version="1.0" encoding="UTF-8" standalone="no"?>
<!-- Created with Inkscape (http://www.inkscape.org/) -->

<svg
   xmlns:dc="http://purl.org/dc/elements/1.1/"
   xmlns:cc="http://creativecommons.org/ns#"
   xmlns:rdf="http://www.w3.org/1999/02/22-rdf-syntax-ns#"
   xmlns:svg="http://www.w3.org/2000/svg"
   xmlns="http://www.w3.org/2000/svg"
   xmlns:sodipodi="http://sodipodi.sourceforge.net/DTD/sodipodi-0.dtd"
   xmlns:inkscape="http://www.inkscape.org/namespaces/inkscape"
   version="1.1"
   id="svg2"
   xml:space="preserve"
   width="4904.6201"
   height="2177.0081"
   viewBox="0 0 4904.6202 2177.0081"
   sodipodi:docname="the-wrong-logo.svg"
   inkscape:version="0.92.2 (30a58d1, 2017-08-07)"><metadata
     id="metadata8"><rdf:RDF><cc:Work
         rdf:about=""><dc:format>image/svg+xml</dc:format><dc:type
           rdf:resource="http://purl.org/dc/dcmitype/StillImage" /><dc:title></dc:title></cc:Work></rdf:RDF></metadata><defs
     id="defs6"><clipPath
       clipPathUnits="userSpaceOnUse"
       id="clipPath18"><path
         d="m 286.753,2197.772 110.795,41.356 85.186,-480.576 123.433,99.028 0.761,-387.473 258.685,637.644 236.93,-652.58 486.566,164.523 -307.453,-654.219 -0.132,1.948 -1.032,-1.651 -58.93,432.9 -337.12,-401.484 -115.65,703.599 -16.505,-5.541 92.605,-772.604 348.836,419.657 1.519,-0.438 18.654,-457.452 h 64.646 l 378.205,768.235 -82.532,-675.203 31.252,-4.874 71.585,397.908 1.558,-1.157 0.23,1.934 638.69,-242.04 10.121,30.122 -583.599,237.399 1.672,0.986 -1.837,0.623 424.344,133.784 c 57.045,-67.212 142.091,-109.915 237.155,-109.915 v 0 c 160.988,0 293.347,122.356 309.317,279.128 v 0 l 30.832,-330.96 65.014,55.382 -111.92,782.213 0.975,-1.672 -0.258,1.907 518.247,-732.441 -13.465,243.241 427.789,-75.296 62.977,238.46 204.715,-215.379 -379.03,-309.834 14.508,-11.482 430.123,301.879 -517.528,555.143 -266.332,-205.601 -25.968,226.677 -139.672,-429.47 -372.312,527.31 67.15,-543.442 c -21.836,150.396 -148.715,266.223 -305.162,266.223 v 0 c -171.756,0 -310.992,-139.237 -310.992,-310.993 v 0 c 0,-3.366 0.147,-6.696 0.253,-10.036 v 0 l -6.956,-0.62 -384.373,215.792 -570.479,-437.594 0.039,1.95 -1.156,-0.44 -1.541,239.865 1.778,-0.583 -0.01,1.942 369.611,131.614 -426.613,225.674 12.337,-477.749 -214.896,521.294 -214.498,-200.631 0.232,1.933 -1.37,-1.395 20.587,437.338 -26.148,-8.227 -140.92,-530.632 43.912,501.221 -120.971,-37.156 -42.885,210.401 -103.582,-319.393 z"
         id="path16"
         inkscape:connector-curvature="0" /></clipPath><linearGradient
       x1="0"
       y1="0"
       x2="1"
       y2="0"
       gradientUnits="userSpaceOnUse"
       gradientTransform="matrix(84.473648,-1934.7648,-1934.7648,-84.473648,1768.025,3711.4974)"
       spreadMethod="pad"
       id="linearGradient28"><stop
         style="stop-opacity:1;stop-color:#ffffff"
         offset="0"
         id="stop24" /><stop
         style="stop-opacity:1;stop-color:#000000"
         offset="1"
         id="stop26" /></linearGradient><clipPath
       clipPathUnits="userSpaceOnUse"
       id="clipPath38"><path
         d="M 0,0 H 4251.968 V 3401.575 H 0 Z"
         id="path36"
         inkscape:connector-curvature="0" /></clipPath></defs><sodipodi:namedview
     pagecolor="#ffffff"
     bordercolor="#666666"
     borderopacity="1"
     objecttolerance="10"
     gridtolerance="10"
     guidetolerance="10"
     inkscape:pageopacity="0"
     inkscape:pageshadow="2"
     inkscape:window-width="1734"
     inkscape:window-height="883"
     id="namedview4"
     showgrid="false"
     inkscape:zoom="0.10406959"
     inkscape:cx="2849.7381"
     inkscape:cy="2136.5622"
     inkscape:window-x="63"
     inkscape:window-y="34"
     inkscape:window-maximized="0"
     inkscape:current-layer="g10" /><g
     id="g10"
     inkscape:groupmode="layer"
     inkscape:label="TW2_logo_large"
     transform="matrix(1.3333333,0,0,-1.3333333,0,2177.0079)"><g
       id="g12"
       transform="translate(-286.75,-884.40904)"><g
         id="g14"
         clip-path="url(#clipPath18)"><g
           id="g20"><g
             id="g22"><path
               d="m 286.753,2197.772 110.795,41.356 85.186,-480.576 123.433,99.028 0.761,-387.473 258.685,637.644 236.93,-652.58 486.566,164.523 -307.453,-654.219 -0.132,1.948 -1.032,-1.651 -58.93,432.9 -337.12,-401.484 -115.65,703.599 -16.505,-5.541 92.605,-772.604 348.836,419.657 1.519,-0.438 18.654,-457.452 h 64.646 l 378.205,768.235 -82.532,-675.203 31.252,-4.874 71.585,397.908 1.558,-1.157 0.23,1.934 638.69,-242.04 10.121,30.122 -583.599,237.399 1.672,0.986 -1.837,0.623 424.344,133.784 c 57.045,-67.212 142.091,-109.915 237.155,-109.915 v 0 c 160.988,0 293.347,122.356 309.317,279.128 v 0 l 30.832,-330.96 65.014,55.382 -111.92,782.213 0.975,-1.672 -0.258,1.907 518.247,-732.441 -13.465,243.241 427.789,-75.296 62.977,238.46 204.715,-215.379 -379.03,-309.834 14.508,-11.482 430.123,301.879 -517.528,555.143 -266.332,-205.601 -25.968,226.677 -139.672,-429.47 -372.312,527.31 67.15,-543.442 c -21.836,150.396 -148.715,266.223 -305.162,266.223 v 0 c -171.756,0 -310.992,-139.237 -310.992,-310.993 v 0 c 0,-3.366 0.147,-6.696 0.253,-10.036 v 0 l -6.956,-0.62 -384.373,215.792 -570.479,-437.594 0.039,1.95 -1.156,-0.44 -1.541,239.865 1.778,-0.583 -0.01,1.942 369.611,131.614 -426.613,225.674 12.337,-477.749 -214.896,521.294 -214.498,-200.631 0.232,1.933 -1.37,-1.395 20.587,437.338 -26.148,-8.227 -140.92,-530.632 43.912,501.221 -120.971,-37.156 -42.885,210.401 -103.582,-319.393 z"
               style="fill:url(#linearGradient28);stroke:none"
               id="path30"
               inkscape:connector-curvature="0" /></g></g></g></g><g
       id="g32"
       transform="translate(-286.75,-884.40904)"><g
         id="g34"
         clip-path="url(#clipPath38)"><g
           id="g40"
           transform="translate(2166.9858,1728.4788)" /></g></g></g></svg>